PathFileType	4	(X/Y/Z)	C:\Users\°ÂÌØÂü\Desktop\20201223\Trimmed_bx_n_0_901.trc
DataRate	CameraRate	NumFrames	NumMarkers	Units	OrigDataRate	OrigDataStartFrame	OrigNumFrames
50.00	50.00	       4	43	mm	50.00	612	       978
Frame#	Time	Top.Head			R.Acromium			L.Acromium			Sternum			R.ASIS			L.ASIS			V.Sacral			R.Thigh.Upper			R.Thigh.Front			R.Thigh.Rear			R.Knee.Lat			R.Knee.Med			R.Shank.Upper			R.Shank.Front			R.Shank.Rear			R.Ankle.Lat			R.Midfoot.Lat			R.Toe.Lat			R.Toe.Tip			R.Toe.Med			R.Ankle.Med			R.Midfoot.Sup			R.Heel			L.Thigh.Upper			L.Thigh.Front			L.Thigh.Rear			L.Knee.Lat			L.Knee.Med			L.Shank.Upper			L.Shank.Front			L.Shank.Rear			L.Ankle.Lat			L.Midfoot.Lat			L.Toe.Lat			L.Toe.Tip			L.Toe.Med			L.Ankle.Med			L.Midfoot.Sup			L.Heel			origin1 front left			origin2 front right			origin 3 back right			origin 4 back leftt			
		X1	Y1	Z1	X2	Y2	Z2	X3	Y3	Z3	X4	Y4	Z4	X5	Y5	Z5	X6	Y6	Z6	X7	Y7	Z7	X8	Y8	Z8	X9	Y9	Z9	X10	Y10	Z10	X11	Y11	Z11	X12	Y12	Z12	X13	Y13	Z13	X14	Y14	Z14	X15	Y15	Z15	X16	Y16	Z16	X17	Y17	Z17	X18	Y18	Z18	X19	Y19	Z19	X20	Y20	Z20	X21	Y21	Z21	X22	Y22	Z22	X23	Y23	Z23	X24	Y24	Z24	X25	Y25	Z25	X26	Y26	Z26	X27	Y27	Z27	X28	Y28	Z28	X29	Y29	Z29	X30	Y30	Z30	X31	Y31	Z31	X32	Y32	Z32	X33	Y33	Z33	X34	Y34	Z34	X35	Y35	Z35	X36	Y36	Z36	X37	Y37	Z37	X38	Y38	Z38	X39	Y39	Z39	X40	Y40	Z40	X41	Y41	Z41	X42	Y42	Z42	X43	Y43	Z43	

612	12.220	-435.43610	256.81732	1760.03113	-475.21902	69.01210	1472.44128	-482.19348	428.50812	1469.49878	-478.76355	248.25795	1272.23071	-630.54462	130.21997	1026.99951	-604.26752	351.66913	1023.38269	-814.06415	254.84885	1074.50305	-714.50824	82.78944	834.56506	-620.94861	129.09605	802.43719	-719.79767	95.55967	717.98621	-721.06818	113.92010	599.01935	-691.91016	219.20372	555.51483	-741.26001	112.67611	532.99994	-661.33850	161.48607	527.05621	-743.09485	105.05644	480.64813	-695.92041	136.13307	210.84364	-617.51935	76.54758	165.25151	-571.12152	54.99365	162.98599	-495.39630	97.68514	160.81242	-537.13794	148.15016	164.29758	-647.75256	212.26474	223.26823	-599.69611	186.09253	173.38788	-726.84943	202.88200	168.68622	-696.54089	440.85663	859.45166	-610.40613	390.09363	820.08447	-705.98004	434.81210	741.35889	-707.84460	418.28333	603.11542	-695.05615	309.71048	564.54321	-718.99951	421.97726	555.24988	-659.22595	366.61032	536.38867	-762.53662	428.54840	486.14755	-681.31311	423.70831	214.35226	-579.23950	465.27646	164.63432	-540.40808	475.06323	159.12968	-485.90433	417.82477	167.64261	-526.59357	382.06461	177.33623	-652.62939	331.18192	210.85912	-598.30292	347.96347	172.02412	-736.07800	356.46057	161.29689	-444.08954	448.50192	146.39597	-450.33807	74.95704	143.32059	-806.33826	82.13980	141.38109	-799.73901	456.87378	145.15300	
613	12.240	-445.64423	257.45929	1765.70837	-480.47055	69.55927	1477.15674	-488.06683	429.20142	1474.15332	-480.08746	249.04747	1276.96863	-627.66284	130.53218	1027.98547	-601.75519	352.10599	1024.36389	-811.86646	255.10939	1074.10046	-711.61011	83.09910	834.80841	-618.25696	129.39799	802.52472	-717.46210	95.80985	718.30066	-719.27411	114.14047	599.31750	-690.22491	219.40439	555.66370	-739.77716	112.87266	533.33618	-659.87988	161.66272	527.02808	-741.83099	105.31272	480.89600	-695.79639	136.23755	210.94688	-617.46033	76.63045	165.29044	-571.10052	55.10044	163.03043	-495.40659	97.68729	160.81598	-537.12494	148.15341	164.22780	-647.50555	212.33115	223.19489	-599.64349	186.10938	173.34087	-726.77136	202.94987	168.67946	-693.96625	441.13663	859.61707	-607.86359	390.64944	820.22101	-703.84149	434.94443	741.61560	-706.28351	418.46591	603.30847	-693.39209	309.74808	564.82770	-717.63031	422.05536	555.37372	-657.92059	366.79449	536.33398	-761.38275	428.47733	486.47882	-681.29779	423.69943	214.36023	-579.24426	465.31433	164.62587	-540.41766	475.06912	159.14005	-485.84351	417.87793	167.72583	-526.61359	382.19272	177.41751	-652.46393	331.12689	210.96112	-598.67676	348.38306	171.56197	-736.08850	356.44586	161.32349	-444.07184	448.53201	146.39584	-450.33179	74.97547	143.30457	-806.29773	82.16751	141.37573	-799.73047	456.89984	145.16856	
614	12.260	-455.64178	258.12436	1771.08545	-485.68799	70.20846	1481.66858	-493.91284	429.90067	1478.55994	-481.47363	249.82872	1281.57996	-624.82855	131.00447	1028.85950	-599.07574	352.56992	1025.36023	-809.56342	255.45078	1073.66272	-708.72095	83.41321	835.07526	-615.57172	129.72350	802.59625	-715.13190	96.05193	718.59790	-717.44250	114.37168	599.63422	-688.49036	219.61406	555.86591	-738.25513	113.08735	533.63983	-658.36322	161.86212	526.99902	-740.53424	105.57947	481.18155	-695.66620	136.34161	211.05794	-617.39532	76.71675	165.35101	-571.07654	55.20626	163.08517	-495.42053	97.69069	160.80518	-537.09698	148.16528	164.14503	-647.21606	212.40497	223.15288	-599.62860	186.16295	173.23918	-726.71497	203.00780	168.68011	-691.30103	441.44647	859.77435	-605.26678	391.24451	820.33405	-701.65613	435.09195	741.86145	-704.67773	418.67273	603.49780	-691.61798	309.76328	565.18604	-716.19019	422.24765	555.57263	-656.55096	366.98932	536.30780	-760.21173	428.40988	486.82840	-681.25928	423.68906	214.38925	-579.25677	465.36148	164.60457	-540.42285	475.08087	159.12813	-485.80460	417.95663	167.80045	-526.62726	382.28326	177.45016	-652.24915	331.09686	211.05437	-599.16022	348.92407	171.00966	-736.10480	356.46500	161.33650	-444.06033	448.58167	146.39433	-450.33777	75.00043	143.28685	-806.27209	82.20647	141.37256	-799.73358	456.91873	145.19141	
615	12.280	-465.45996	258.81335	1776.17371	-490.87695	70.95124	1485.97632	-499.69754	430.64145	1482.73840	-482.93930	250.62221	1286.03064	-622.02936	131.61659	1029.64587	-596.29736	353.04135	1026.35913	-807.13062	255.85760	1073.18689	-705.83130	83.73660	835.35876	-612.85950	130.04666	802.65509	-712.77417	96.29976	718.89227	-715.57538	114.60338	599.94159	-686.72101	219.83130	556.09857	-736.66553	113.32013	533.93085	-656.78064	162.06319	526.98608	-739.19086	105.83672	481.51508	-695.51965	136.45325	211.18466	-617.33173	76.79769	165.43964	-571.04968	55.29781	163.13829	-495.43027	97.69108	160.78441	-537.05762	148.18356	164.05940	-646.89697	212.49506	223.13335	-599.64362	186.24973	173.09253	-726.67023	203.05966	168.68880	-688.54260	441.78915	859.93353	-602.59552	391.85263	820.43207	-699.40521	435.23233	742.08478	-703.00128	418.88623	603.69672	-689.76935	309.82309	565.55774	-714.67316	422.53391	555.84058	-655.07635	367.20096	536.32336	-759.00977	428.34558	487.19278	-681.18774	423.67578	214.43848	-579.26923	465.40372	164.58409	-540.42365	475.09888	159.09885	-485.78052	418.04776	167.85109	-526.63147	382.32278	177.43190	-652.01068	331.08347	211.11696	-599.63934	349.44644	170.50136	-736.12067	356.50912	161.33023	-444.05286	448.62500	146.38876	-450.35425	75.02598	143.27428	-806.26917	82.24140	141.36827	-799.74084	456.92056	145.20993	
